<svg width="30" height="30" viewBox="0 0 30 30" fill="none" xmlns="http://www.w3.org/2000/svg">
<g clip-path="url(#clip0_3136_1514)">
<path d="M19.2589 18.3136L15 22.5725L10.7411 18.3136C7.54911 18.452 5 21.0636 5 24.2868V24.7154C5 25.8984 5.95982 26.8583 7.14286 26.8583H22.8571C24.0402 26.8583 25 25.8984 25 24.7154V24.2868C25 21.0636 22.4509 18.452 19.2589 18.3136V18.3136ZM5.60714 7.56362L5.89286 7.63058V10.2377C5.58036 10.4252 5.35714 10.7511 5.35714 11.144C5.35714 11.519 5.5625 11.8315 5.85268 12.0234L5.15625 14.8047C5.08036 15.1127 5.25 15.4297 5.49554 15.4297H7.36161C7.60714 15.4297 7.77679 15.1127 7.70089 14.8047L7.00446 12.0234C7.29464 11.8315 7.5 11.519 7.5 11.144C7.5 10.7511 7.27679 10.4252 6.96429 10.2377V7.88951L9.91071 8.59933C9.52679 9.36719 9.28571 10.2243 9.28571 11.144C9.28571 14.3002 11.8438 16.8583 15 16.8583C18.1563 16.8583 20.7143 14.3002 20.7143 11.144C20.7143 10.2243 20.4777 9.36719 20.0893 8.59933L24.3884 7.56362C25.2009 7.36719 25.2009 6.35379 24.3884 6.15737L15.8884 4.10379C15.308 3.9654 14.6964 3.9654 14.1161 4.10379L5.60714 6.1529C4.79911 6.34933 4.79911 7.36719 5.60714 7.56362V7.56362Z" fill="#003F7F"/>
</g>
<defs>
<clipPath id="clip0_3136_1514">
<rect width="20" height="22.8571" fill="white" transform="translate(5 4)"/>
</clipPath>
</defs>
</svg>
