<svg width="30" height="30" viewBox="0 0 30 30" fill="none" xmlns="http://www.w3.org/2000/svg">
<path fill-rule="evenodd" clip-rule="evenodd" d="M18.6078 11.1895C18.7485 11.1532 18.8979 11.1734 19.0238 11.2459C19.1498 11.3184 19.2424 11.4374 19.2816 11.5773C19.4661 12.2377 19.4953 12.9319 19.3669 13.6055C19.2385 14.279 18.9559 14.9138 18.5414 15.46C18.1269 16.0062 17.5916 16.4491 16.9774 16.754C16.3632 17.0589 15.6868 17.2176 15.0011 17.2176C14.3154 17.2176 13.639 17.0589 13.0248 16.754C12.4106 16.4491 11.8753 16.0062 11.4608 15.46C11.0462 14.9138 10.7637 14.279 10.6353 13.6055C10.5069 12.9319 10.536 12.2377 10.7205 11.5773C10.7598 11.4374 10.8524 11.3184 10.9783 11.2459C11.1043 11.1734 11.2537 11.1532 11.3944 11.1895C13.4622 11.7229 16.54 11.7229 18.6078 11.1895V11.1895ZM11.69 12.3962C11.6369 12.8628 11.6829 13.3352 11.8251 13.7827C11.9673 14.2302 12.2025 14.6427 12.5152 14.993C12.8279 15.3432 13.211 15.6235 13.6396 15.8154C14.0681 16.0074 14.5324 16.1066 15.0019 16.1066C15.4715 16.1066 15.9357 16.0074 16.3643 15.8154C16.7928 15.6235 17.176 15.3432 17.4887 14.993C17.8013 14.6427 18.0365 14.2302 18.1787 13.7827C18.3209 13.3352 18.367 12.8628 18.3139 12.3962C16.3044 12.8018 13.6989 12.8018 11.69 12.3962Z" fill="#003F7F"/>
<path fill-rule="evenodd" clip-rule="evenodd" d="M12.2222 17.4944C8.89611 18.075 5 19.5572 5 21.6667V25H25V21.6667C25 19.5572 21.1039 18.075 17.7778 17.4944V20H12.2222V17.4944V17.4944ZM8.88889 25V20H10V25H8.88889ZM20.5556 20V25H21.6667V20H20.5556ZM15.5556 5.03222V7.48889C15.5556 7.63623 15.497 7.77754 15.3928 7.88173C15.2887 7.98591 15.1473 8.04444 15 8.04444C14.8527 8.04444 14.7113 7.98591 14.6072 7.88173C14.503 7.77754 14.4444 7.63623 14.4444 7.48889V5C13.8709 5.03032 13.3069 5.16002 12.7778 5.38333V8.6C12.7778 8.74734 12.7192 8.88865 12.6151 8.99284C12.5109 9.09702 12.3696 9.15556 12.2222 9.15556C12.0749 9.15556 11.9336 9.09702 11.8294 8.99284C11.7252 8.88865 11.6667 8.74734 11.6667 8.6V6.075C10.9056 6.72944 10.4667 7.57833 10.3272 8.32222C10.3224 8.34809 10.318 8.37402 10.3139 8.4L10.3028 8.41111C10.2533 8.76056 10.2806 9.04833 10.3517 9.24611C10.3972 9.38373 10.3872 9.5337 10.3237 9.66402C10.2602 9.79433 10.1483 9.89467 10.0118 9.9436C9.87535 9.99254 9.72518 9.98621 9.59333 9.92596C9.46149 9.86571 9.35841 9.75631 9.30611 9.62111C9.29669 9.59537 9.2878 9.56944 9.27944 9.54333C6.05333 13.7556 23.9644 13.7533 20.715 9.53611C20.7066 9.56331 20.6977 9.59035 20.6883 9.61722C20.6371 9.75291 20.5349 9.86318 20.4034 9.92449C20.272 9.9858 20.1218 9.99328 19.9849 9.94533C19.848 9.89738 19.7353 9.79781 19.6709 9.66789C19.6064 9.53796 19.5954 9.38799 19.64 9.25C19.72 9.02 19.7433 8.73333 19.7 8.41667C19.6967 8.41422 19.6934 8.41182 19.69 8.40944C19.57 7.65833 19.1133 6.82778 18.3333 6.17333V8.6C18.3333 8.74734 18.2748 8.88865 18.1706 8.99284C18.0664 9.09702 17.9251 9.15556 17.7778 9.15556C17.6304 9.15556 17.4891 9.09702 17.3849 8.99284C17.2808 8.88865 17.2222 8.74734 17.2222 8.6V5.47889C17.0053 5.38145 16.782 5.29885 16.5539 5.23167C16.2275 5.13653 15.8934 5.06962 15.5556 5.03167V5.03222Z" fill="#003F7F"/>
</svg>
