<svg width="25" height="27" viewBox="0 0 25 27" fill="none" xmlns="http://www.w3.org/2000/svg">
<path d="M9.4149 19.8535H12.6608L8.10578 7H4.55502L0 19.8535H3.21003L3.96322 17.5831H8.6617L9.4149 19.8535ZM7.87265 15.1662H4.77021L6.31246 10.4606L7.87265 15.1662Z" fill="#003F7F"/>
<path d="M13.4374 14.7268C13.4374 17.9493 15.3921 20 17.831 20C19.3194 20 20.3775 19.3042 20.9334 18.407V19.8535H24V9.63662H20.9334V11.0831C20.3954 10.1859 19.3374 9.49014 17.8489 9.49014C15.3921 9.49014 13.4374 11.5042 13.4374 14.7268ZM20.9334 14.7451C20.9334 16.3746 19.9112 17.2718 18.7456 17.2718C17.5979 17.2718 16.5577 16.3563 16.5577 14.7268C16.5577 13.0972 17.5979 12.2183 18.7456 12.2183C19.9112 12.2183 20.9334 13.1155 20.9334 14.7451Z" fill="#003F7F"/>
</svg>
