<svg width="30" height="30" viewBox="0 0 30 30" fill="none" xmlns="http://www.w3.org/2000/svg">
<path d="M21.002 14C22.492 14 23.8719 14.47 25.0019 15.26V11C25.0019 9.89 24.1119 9 23.0019 9H19.002V7C19.002 5.89 18.112 5 17.002 5H13.002C11.892 5 11.002 5.89 11.002 7V9H7.00195C5.89195 9 5.01195 9.89 5.01195 11L5.00195 22C5.00195 23.11 5.89195 24 7.00195 24H14.682C14.1746 22.9335 13.9455 21.7559 14.0161 20.577C14.0867 19.3981 14.4546 18.2563 15.0855 17.2579C15.7165 16.2596 16.5899 15.4373 17.6245 14.8676C18.659 14.2979 19.8209 13.9994 21.002 14V14ZM13.002 7H17.002V9H13.002V7Z" fill="#003F7F"/>
<path d="M21.002 16C18.242 16 16.002 18.24 16.002 21C16.002 23.76 18.242 26 21.002 26C23.762 26 26.002 23.76 26.002 21C26.002 18.24 23.762 16 21.002 16ZM22.652 23.35L20.502 21.2V18H21.502V20.79L23.352 22.64L22.652 23.35V23.35Z" fill="#003F7F"/>
</svg>
