<svg width="30" height="30" viewBox="0 0 30 30" fill="none" xmlns="http://www.w3.org/2000/svg">
<path d="M9 9C10.1046 9 11 8.10457 11 7C11 5.89543 10.1046 5 9 5C7.89543 5 7 5.89543 7 7C7 8.10457 7.89543 9 9 9Z" fill="#003F7F"/>
<path d="M12 10H6C5.73478 10 5.48043 10.1054 5.29289 10.2929C5.10536 10.4804 5 10.7348 5 11V18H7V25H11V18H13V11C13 10.7348 12.8946 10.4804 12.7071 10.2929C12.5196 10.1054 12.2652 10 12 10Z" fill="#003F7F"/>
<path d="M20 9C21.1046 9 22 8.10457 22 7C22 5.89543 21.1046 5 20 5C18.8954 5 18 5.89543 18 7C18 8.10457 18.8954 9 20 9Z" fill="#003F7F"/>
<path d="M23.21 10.7307C23.1495 10.5144 23.018 10.3247 22.8366 10.1923C22.6552 10.0599 22.4344 9.99238 22.21 10.0007H17.71C17.4856 9.99238 17.2648 10.0599 17.0834 10.1923C16.902 10.3247 16.7705 10.5144 16.71 10.7307L15 17.0007H17L16 21.0007H18V25.0007H22V21.0007H24L23 17.0007H25L23.21 10.7307Z" fill="#003F7F"/>
</svg>
