<svg width="25" height="27" viewBox="0 0 25 27" fill="none" xmlns="http://www.w3.org/2000/svg">
<path d="M7.992 10.552H6.912V13.6H7.992C9.552 13.6 10.224 14.512 10.224 15.496C10.224 16.576 9.552 17.32 8.4 17.32C7.248 17.32 6.528 16.504 6.528 15.496H3C3 18.52 5.256 20.56 8.64 20.56C11.64 20.56 13.632 18.736 13.632 15.88C13.632 15.808 13.632 15.736 13.632 15.664H15.984V21.976H19.728V7.36H22.104V4.216H15.984V12.568H12.048C11.712 12.328 11.304 12.16 10.848 12.04V11.944C12.48 11.392 13.392 10.096 13.392 8.368C13.392 5.728 11.424 4 8.376 4C5.232 4 3.144 5.944 3.144 8.824H6.624C6.624 7.84 7.368 7.192 8.376 7.192C9.312 7.192 10.032 7.84 10.032 8.872C10.032 9.832 9.264 10.552 7.992 10.552Z" fill="#003F7F"/>
</svg>
