<svg width="25" height="27" viewBox="0 0 25 27" fill="none" xmlns="http://www.w3.org/2000/svg">
<path d="M12.2963 20C10.2869 20 8.55805 19.7995 7.1098 19.3984C5.67965 18.9974 4.512 18.4414 3.60685 17.7305C2.7198 17.0195 2.05903 16.1992 1.62456 15.2695C1.20819 14.3216 1 13.3008 1 12.207C1 10.931 1.24439 9.82812 1.73318 8.89844C2.22196 7.96875 2.90988 7.25781 3.79693 6.76562C4.70209 6.25521 5.75207 6 6.94687 6C7.88823 6 8.67572 6.18229 9.30933 6.54687C9.96104 6.91146 10.4498 7.39453 10.7757 7.99609C11.1196 8.59766 11.2916 9.26302 11.2916 9.99219C11.2916 10.8672 11.1106 11.6055 10.7485 12.207C10.4046 12.7904 9.87957 13.237 9.17355 13.5469C8.46753 13.8385 7.59858 13.9844 6.56671 13.9844C5.62534 13.9844 4.8107 13.7747 4.12279 13.3555C3.45297 12.918 2.90988 12.5169 2.49351 12.1523L3.11806 9.58203C3.3353 9.85547 3.58874 10.1289 3.87839 10.4023C4.18615 10.6758 4.53011 10.9036 4.91027 11.0859C5.29044 11.25 5.69776 11.332 6.13223 11.332C6.67532 11.332 7.11885 11.2318 7.46281 11.0313C7.82487 10.8125 8.0059 10.457 8.0059 9.96484C8.0059 9.65495 7.89728 9.3724 7.68005 9.11719C7.46281 8.84375 7.14601 8.70703 6.72963 8.70703C6.09602 8.70703 5.57103 8.98047 5.15466 9.52734C4.73829 10.056 4.53011 10.694 4.53011 11.4414V12.5352C4.53011 13.2461 4.7745 13.9206 5.26328 14.5586C5.75207 15.1966 6.56671 15.7161 7.7072 16.1172C8.8658 16.5 10.4317 16.6914 12.405 16.6914C15.1204 16.6914 17.1027 16.3268 18.3518 15.5977C19.6009 14.8503 20.2255 13.6016 20.2255 11.8516C20.2255 11.2865 20.135 10.8034 19.954 10.4023C19.7729 9.98307 19.5104 9.66406 19.1665 9.44531C18.8406 9.20833 18.4423 9.08984 17.9717 9.08984C17.5372 9.08984 17.1751 9.21745 16.8855 9.47266C16.5958 9.72786 16.451 10.0924 16.451 10.5664C16.451 11.0221 16.6049 11.4232 16.9126 11.7695C17.2385 12.0977 17.682 12.3529 18.2432 12.5352V14.9688H10.8028V12.1797H14.7946L14.3329 12.2891C13.989 11.9245 13.7265 11.5052 13.5455 11.0313C13.3644 10.5391 13.2739 10.1198 13.2739 9.77344C13.2739 9.08073 13.4459 8.45182 13.7898 7.88672C14.1519 7.30339 14.6769 6.84765 15.3648 6.51953C16.0527 6.17318 16.8764 6 17.8359 6C19.085 6 20.1712 6.24609 21.0944 6.73828C22.0177 7.23047 22.7328 7.92318 23.2397 8.81641C23.7466 9.70964 24 10.7578 24 11.9609C24 13.2734 23.7375 14.431 23.2125 15.4336C22.6875 16.418 21.9181 17.2565 20.9044 17.9492C19.9087 18.6237 18.6867 19.1341 17.2385 19.4805C15.7902 19.8268 14.1429 20 12.2963 20Z" fill="#003F7F"/>
</svg>
