<svg width="30" height="30" viewBox="0 0 30 30" fill="none" xmlns="http://www.w3.org/2000/svg">
<path d="M15.2937 16.3598C16.8172 16.3598 18.0522 15.1248 18.0522 13.6013C18.0522 12.0778 16.8172 10.8428 15.2937 10.8428C13.7702 10.8428 12.5352 12.0778 12.5352 13.6013C12.5352 15.1248 13.7702 16.3598 15.2937 16.3598Z" stroke="#003F7F" stroke-width="2.99693" stroke-linecap="round" stroke-linejoin="round"/>
<path d="M15.2936 6.24707C13.3426 6.24707 11.4716 7.02209 10.0921 8.40162C8.71252 9.78116 7.9375 11.6522 7.9375 13.6032C7.9375 15.3429 8.30714 16.4812 9.31677 17.741L15.2936 24.6373L21.2704 17.741C22.2801 16.4812 22.6497 15.3429 22.6497 13.6032C22.6497 11.6522 21.8747 9.78116 20.4952 8.40162C19.1156 7.02209 17.2446 6.24707 15.2936 6.24707V6.24707Z" stroke="#003F7F" stroke-width="2.99693" stroke-linecap="round" stroke-linejoin="round"/>
</svg>
