<svg width="30" height="30" viewBox="0 0 30 30" fill="none" xmlns="http://www.w3.org/2000/svg">
<path d="M23.0019 10V8C23.0019 6.897 22.105 6 21.002 6H8.00195C6.34795 6 5.00195 7.346 5.00195 9V21C5.00195 23.201 6.79595 24 8.00195 24H23.0019C24.1049 24 25.0019 23.103 25.0019 22V12C25.0019 10.897 24.1049 10 23.0019 10ZM21.002 19H19.002V15H21.002V19ZM8.00195 10C7.74447 9.98848 7.50136 9.87809 7.32323 9.69182C7.1451 9.50554 7.04569 9.25774 7.04569 9C7.04569 8.74226 7.1451 8.49446 7.32323 8.30818C7.50136 8.12191 7.74447 8.01152 8.00195 8H21.002V10H8.00195Z" fill="#003F7F"/>
</svg>
