<svg width="25" height="27" viewBox="0 0 25 27" fill="none" xmlns="http://www.w3.org/2000/svg">
<path d="M7.74529 20.7321C6.30134 20.7321 5.07743 20.5536 4.07354 20.1964C3.06966 19.8393 2.30643 19.3448 1.78386 18.7129C1.26129 18.081 1 17.353 1 16.5288C1 16.1305 1.07564 15.7527 1.22691 15.3956C1.39193 15.0385 1.66009 14.7294 2.03139 14.4684C2.22392 14.331 2.4577 14.2212 2.73274 14.1387C3.00777 14.0426 3.33782 13.9739 3.72287 13.9327C4.12167 13.8915 4.60299 13.8709 5.16682 13.8709H21.1121L21.0915 16.0549H5.39372C5.17369 16.0549 4.98117 16.0618 4.81614 16.0755C4.66487 16.0893 4.54111 16.1168 4.44484 16.158C4.34858 16.1854 4.26607 16.2266 4.19731 16.2816C4.04604 16.4327 3.9704 16.6113 3.9704 16.8173C3.9704 17.3255 4.30045 17.7376 4.96054 18.0536C5.62063 18.3695 6.66577 18.5275 8.09596 18.5275H8.3435C9.73244 18.5275 10.9082 18.3695 11.8709 18.0536C12.8335 17.7376 13.6105 17.3049 14.2018 16.7555C14.8069 16.206 15.2538 15.5948 15.5426 14.9217L15.6045 14.3448C15.6732 14.0838 15.7145 13.8228 15.7283 13.5618C15.7558 13.2871 15.7695 13.033 15.7695 12.7994C15.7695 12.0302 15.6595 11.3228 15.4395 10.6772C15.2194 10.0179 14.8619 9.46841 14.3668 9.02885C13.8855 8.57555 13.246 8.28022 12.4484 8.14286C12.2972 8.11538 12.1321 8.10165 11.9534 8.10165C11.7883 8.08791 11.6302 8.08104 11.4789 8.08104C11.0939 8.08104 10.7363 8.12912 10.4063 8.22527C10.0762 8.30769 9.80807 8.45879 9.60179 8.67857C9.39551 8.89835 9.29238 9.21428 9.29238 9.62637C9.29238 10.0522 9.40927 10.3887 9.64305 10.636C9.87683 10.8832 10.2069 11.0069 10.6332 11.0069C10.9907 11.0069 11.3001 10.897 11.5614 10.6772C11.8227 10.4437 11.9534 10.0247 11.9534 9.42033C11.9534 8.89835 11.8296 8.42445 11.5821 7.99863C11.3483 7.55907 11.0801 7.15385 10.7776 6.78297L12.9435 6.4533C13.1773 6.65934 13.3973 6.91346 13.6036 7.21566C13.8236 7.51786 14.0024 7.875 14.1399 8.28709C14.2912 8.68544 14.3668 9.15934 14.3668 9.70879C14.3668 10.1896 14.2912 10.636 14.1399 11.0481C14.0024 11.4602 13.7755 11.8242 13.4592 12.1401C13.1567 12.456 12.7578 12.7033 12.2628 12.8819C11.7677 13.0467 11.1626 13.1291 10.4475 13.1291C9.74619 13.1291 9.09297 13.0055 8.48789 12.7582C7.89656 12.511 7.41525 12.1401 7.04395 11.6456C6.6864 11.1374 6.50762 10.5055 6.50762 9.75C6.50762 8.87088 6.72765 8.15659 7.16771 7.60714C7.62152 7.05769 8.22661 6.65247 8.98296 6.39148C9.73931 6.13049 10.5919 6 11.5408 6C12.7647 6 13.8236 6.18544 14.7175 6.55632C15.6114 6.9272 16.354 7.43544 16.9453 8.08104C17.5504 8.71291 17.9973 9.43407 18.2861 10.2445C18.5749 11.0412 18.7193 11.8723 18.7193 12.7376C18.7193 13.0398 18.6987 13.3352 18.6574 13.6236C18.6299 13.8984 18.5886 14.1731 18.5336 14.4478V15.1896C18.1211 16.3434 17.4335 17.3324 16.4709 18.1566C15.5082 18.9808 14.3187 19.6126 12.9022 20.0522C11.4858 20.5055 9.89058 20.7321 8.11659 20.7321H7.74529ZM20.9265 21V6.24725H24V21H20.9265Z" fill="#003F7F"/>
</svg>
