<svg width="25" height="27" viewBox="0 0 25 27" fill="none" xmlns="http://www.w3.org/2000/svg">
<path d="M18.3509 22C17.4286 22 16.6119 21.8762 15.901 21.6286C15.1901 21.381 14.5464 21.019 13.9699 20.5429C13.3935 20.0476 12.8555 19.4286 12.3559 18.6857L14.114 18.7714C13.4607 19.5333 12.7978 20.1524 12.1253 20.6286C11.472 21.1048 10.7322 21.4571 9.90602 21.6857C9.099 21.8952 8.13826 22 7.02381 22C5.81328 22 4.75647 21.781 3.85338 21.3429C2.95029 20.9048 2.24896 20.2857 1.74937 19.4857C1.24979 18.6857 1 17.7524 1 16.6857C1 15.7524 1.21136 14.9429 1.63409 14.2571C2.07602 13.5524 2.67168 13.0095 3.42105 12.6286C4.18964 12.2286 5.07352 12.0286 6.07268 12.0286C7.41771 12.0286 8.42648 12.3048 9.099 12.8571C9.79073 13.4095 10.1366 14.1714 10.1366 15.1429C10.1366 15.4476 10.0886 15.7619 9.99248 16.0857C9.91562 16.4095 9.81955 16.6762 9.70426 16.8857L6.82206 16.6571C6.86049 16.5429 6.8797 16.4381 6.8797 16.3429C6.89891 16.2286 6.90852 16.1238 6.90852 16.0286C6.90852 15.7429 6.82206 15.5238 6.64912 15.3714C6.49541 15.2 6.25522 15.1143 5.92857 15.1143C5.56349 15.1143 5.24645 15.2381 4.97744 15.4857C4.70844 15.7143 4.57393 16.0571 4.57393 16.5143C4.57393 17.1048 4.83333 17.5619 5.35213 17.8857C5.87093 18.2095 6.67795 18.3714 7.77318 18.3714C8.96449 18.3714 9.82916 18.0952 10.3672 17.5429C10.9052 16.9905 11.2126 16.2667 11.2895 15.3714H15.0652C15.142 16.419 15.411 17.181 15.8722 17.6571C16.3525 18.1333 16.9194 18.3714 17.5727 18.3714C18.4181 18.3714 18.9946 18.1143 19.302 17.6C19.6287 17.0667 19.792 16.419 19.792 15.6571C19.792 14.4952 19.5038 13.4857 18.9273 12.6286C18.3509 11.7524 17.515 11.0381 16.4198 10.4857C15.3438 9.91429 14.0468 9.48571 12.5288 9.2C11.0109 8.91429 9.31997 8.77143 7.45614 8.77143L7.77318 5C10.0982 5.01905 12.1445 5.20952 13.9123 5.57143C15.6992 5.91429 17.2268 6.41905 18.495 7.08571C19.7824 7.73333 20.8296 8.50476 21.6366 9.4C22.4436 10.2762 23.0393 11.2476 23.4236 12.3143C23.8079 13.381 24 14.5048 24 15.6857C24 17.1143 23.7598 18.2952 23.2794 19.2286C22.7991 20.1619 22.1362 20.8571 21.2907 21.3143C20.4453 21.7714 19.4653 22 18.3509 22Z" fill="#003F7F"/>
</svg>
